<?xml version="1.0" standalone="no"?>
<!DOCTYPE svg PUBLIC "-//W3C//DTD SVG 20010904//EN"
 "http://www.w3.org/TR/2001/REC-SVG-20010904/DTD/svg10.dtd">
<svg version="1.0" xmlns="http://www.w3.org/2000/svg"
 width="938.000000pt" height="938.000000pt" viewBox="0 0 938.000000 938.000000"
 preserveAspectRatio="xMidYMid meet">
<metadata>
Created by potrace 1.14, written by Peter Selinger 2001-2017
</metadata>
<g transform="translate(0.000000,938.000000) scale(0.100000,-0.100000)"
fill="#000000" stroke="none">
<path d="M4520 9180 c0 -3 -19 -6 -43 -8 -39 -2 -82 -9 -82 -12 0 -1 -11 -3
-25 -6 -53 -9 -188 -59 -249 -91 -105 -55 -194 -131 -259 -218 -20 -27 -39
-52 -42 -55 -10 -8 -80 -150 -75 -150 3 0 -2 -14 -11 -31 -8 -17 -17 -38 -19
-47 -3 -16 -168 -471 -182 -502 -8 -19 -8 -19 -18 -55 -4 -16 -11 -34 -15 -40
-5 -5 -10 -19 -12 -30 -1 -11 -5 -22 -8 -25 -3 -3 -15 -34 -27 -70 -12 -36
-52 -146 -88 -245 -37 -99 -71 -191 -75 -205 -4 -14 -20 -55 -34 -92 -14 -38
-22 -68 -18 -68 4 0 3 -4 -3 -8 -5 -4 -18 -32 -29 -62 -10 -30 -23 -66 -29
-80 -5 -14 -11 -32 -13 -40 -2 -8 -9 -30 -17 -50 -24 -56 -71 -185 -122 -330
-26 -74 -53 -148 -61 -165 -7 -16 -19 -50 -28 -75 -8 -25 -31 -90 -51 -145
-20 -55 -41 -112 -45 -127 -5 -15 -12 -33 -17 -40 -4 -7 -8 -15 -9 -18 -4 -21
-18 -67 -23 -75 -3 -5 -6 -12 -7 -15 0 -3 -6 -18 -12 -33 -7 -16 -12 -30 -12
-33 0 -2 -50 -140 -111 -306 -61 -167 -112 -307 -114 -313 -1 -5 -6 -21 -12
-35 -6 -14 -36 -97 -67 -185 -32 -88 -61 -168 -67 -177 -5 -10 -9 -23 -9 -29
0 -6 -6 -25 -14 -42 -8 -18 -29 -72 -46 -122 -18 -49 -46 -128 -62 -175 -17
-47 -35 -90 -40 -97 -5 -7 -7 -17 -3 -23 3 -5 2 -10 -3 -10 -5 0 -9 -6 -9 -12
-1 -12 -53 -161 -69 -198 -4 -8 -8 -19 -10 -25 -4 -14 -53 -146 -61 -165 -3
-8 -7 -18 -8 -22 -2 -5 -3 -9 -5 -10 -1 -2 -3 -10 -5 -18 -2 -8 -19 -58 -38
-110 -19 -52 -69 -189 -111 -305 -42 -115 -79 -217 -83 -225 -3 -8 -7 -19 -9
-25 -1 -5 -18 -51 -37 -102 -19 -51 -32 -95 -29 -98 3 -3 0 -5 -6 -5 -7 0 -12
-7 -12 -15 0 -8 -11 -43 -24 -77 -13 -35 -36 -97 -51 -138 -48 -135 -62 -174
-95 -259 -17 -47 -34 -92 -36 -100 -2 -9 -31 -90 -64 -181 -85 -228 -91 -244
-94 -255 -2 -5 -6 -17 -9 -25 -4 -8 -24 -64 -46 -125 -21 -60 -51 -141 -66
-180 -14 -38 -28 -77 -30 -85 -2 -9 -14 -42 -27 -75 -13 -33 -35 -94 -48 -135
-14 -41 -27 -77 -30 -80 -6 -6 -49 -138 -56 -172 -14 -71 -17 -102 -16 -183 0
-49 3 -103 7 -120 3 -16 8 -43 11 -60 3 -16 20 -64 36 -105 93 -225 262 -385
489 -461 251 -84 521 -42 729 114 152 114 219 215 311 464 33 93 77 211 96
263 19 52 41 115 49 139 8 24 19 50 25 57 6 8 9 14 5 14 -3 0 1 17 10 38 8 20
22 57 30 82 8 25 19 54 24 65 5 11 19 49 31 85 12 36 26 71 32 78 5 6 7 12 4
12 -3 0 7 30 22 68 15 37 29 70 29 75 1 4 2 8 3 10 0 1 2 9 4 17 8 33 31 85
40 92 6 4 7 8 3 8 -4 0 2 24 13 53 11 28 28 72 36 97 9 25 20 56 26 70 5 14
11 30 13 35 1 6 21 62 44 125 23 63 62 169 85 235 24 66 58 158 76 205 17 47
44 121 60 165 15 44 40 112 54 150 15 39 33 90 41 115 8 25 19 54 25 65 5 11
22 58 38 105 16 47 35 99 42 115 7 17 13 32 13 35 1 3 5 11 9 18 5 6 6 12 2
12 -3 0 1 14 10 30 9 17 13 30 10 30 -3 0 4 18 15 40 11 21 20 44 20 49 0 5 5
22 12 38 6 15 12 30 12 33 1 3 6 19 13 35 21 56 26 70 28 80 2 6 14 40 28 75
14 36 34 90 44 120 10 30 23 58 28 62 6 4 7 8 3 8 -4 0 1 20 12 45 11 25 17
45 14 45 -2 0 2 13 10 29 9 16 12 31 9 35 -4 3 -2 6 4 6 5 0 10 6 11 13 0 6
27 84 60 172 32 88 74 203 92 255 18 52 36 100 40 105 4 6 11 21 15 35 8 30
169 478 192 535 27 69 29 76 93 255 34 96 68 189 76 207 8 17 14 36 14 42 0 6
4 19 10 29 5 9 23 58 40 107 17 50 38 105 46 123 7 18 14 36 14 41 0 5 8 26
17 47 9 22 17 44 18 49 1 11 10 34 31 82 8 17 14 35 14 40 0 5 11 36 24 68 24
60 26 60 41 5 2 -5 7 -18 28 -75 7 -16 12 -32 12 -35 0 -6 32 -95 45 -125 5
-11 27 -72 50 -135 23 -63 50 -137 60 -165 29 -77 121 -329 124 -340 2 -5 6
-17 9 -25 15 -40 42 -116 43 -120 0 -3 6 -18 12 -33 7 -16 12 -30 12 -33 0 -2
23 -66 51 -141 28 -76 64 -176 81 -223 16 -47 34 -94 39 -105 9 -20 82 -222
101 -280 5 -16 14 -39 19 -50 11 -24 99 -272 107 -300 2 -11 9 -25 13 -31 5
-6 10 -19 12 -30 2 -10 9 -30 17 -44 7 -14 13 -26 12 -27 -1 -2 1 -8 3 -15 3
-7 25 -70 50 -140 24 -71 48 -136 54 -145 5 -10 10 -21 10 -25 1 -4 4 -15 8
-23 3 -9 3 -18 1 -20 -3 -3 -243 -5 -534 -6 -563 0 -606 -3 -737 -51 -34 -12
-83 -34 -108 -48 -54 -30 -168 -112 -169 -122 0 -3 -17 -24 -38 -45 -149 -150
-231 -421 -198 -655 14 -104 84 -274 143 -350 89 -115 266 -250 358 -273 6 -2
30 -10 55 -18 25 -9 61 -18 80 -22 19 -3 44 -8 55 -10 11 -2 394 -4 852 -4
l832 -1 6 -22 c3 -13 10 -32 15 -43 11 -26 43 -117 47 -130 1 -5 23 -66 49
-135 25 -69 63 -172 84 -230 94 -262 172 -478 183 -505 6 -16 12 -32 13 -35 0
-3 4 -12 7 -20 12 -27 139 -375 145 -395 3 -11 12 -31 21 -44 8 -13 16 -31 17
-39 2 -8 6 -18 11 -21 4 -3 21 -25 37 -49 47 -68 135 -154 211 -203 328 -213
748 -166 1018 115 85 88 139 178 178 293 25 73 24 72 35 148 8 55 8 181 0 234
-10 57 -26 112 -71 236 -24 66 -49 136 -56 155 -7 19 -16 44 -20 55 -24 57
-259 714 -259 724 0 6 -5 11 -12 11 -6 0 -9 3 -5 6 3 3 -3 26 -13 50 -11 24
-20 48 -21 52 -2 10 -10 34 -17 52 -3 8 -6 18 -7 23 -2 4 -4 9 -5 12 -1 3 -3
8 -5 13 -1 4 -4 14 -8 22 -19 52 -39 110 -39 117 0 4 -5 17 -11 28 -6 11 -12
23 -13 28 -1 4 -3 9 -4 12 -1 3 -3 8 -4 13 -1 4 -11 32 -22 62 -12 30 -34 89
-49 130 -38 106 -62 172 -71 195 -4 11 -8 23 -9 28 -2 4 -4 9 -5 12 -1 3 -3 8
-5 13 -1 4 -5 16 -9 27 -4 11 -16 44 -27 73 -10 28 -28 76 -38 105 -11 28 -29
79 -40 112 -12 33 -25 69 -30 80 -10 23 -85 229 -127 350 -15 44 -30 85 -34
90 -4 6 -10 22 -14 37 -3 15 -11 40 -18 55 -6 15 -12 33 -14 38 -3 9 -31 88
-86 235 -11 30 -27 69 -34 87 -8 17 -14 35 -14 39 0 7 -31 94 -57 164 -4 8 -7
17 -8 20 -1 3 -5 12 -8 20 -4 8 -18 49 -32 90 -14 41 -30 84 -35 95 -5 11 -14
38 -21 60 -6 22 -15 45 -19 50 -4 6 -20 48 -35 95 -24 73 -82 232 -102 280 -3
8 -7 20 -8 25 -2 6 -19 55 -40 110 -40 111 -47 129 -45 133 0 1 -7 16 -16 33
-8 17 -17 41 -20 52 -2 12 -8 31 -13 42 -5 11 -22 54 -36 95 -15 41 -38 107
-52 145 -14 39 -26 75 -28 80 -1 6 -9 27 -19 47 -9 21 -16 42 -16 48 0 6 -4
18 -10 28 -5 9 -30 76 -55 147 -55 158 -52 148 -54 158 0 4 -8 21 -17 38 -8
17 -17 41 -20 52 -2 12 -8 31 -13 42 -5 11 -30 79 -56 150 -25 72 -58 164 -74
205 -15 41 -40 109 -55 150 -15 41 -36 97 -47 124 -10 27 -19 56 -19 65 0 10
-4 21 -9 27 -5 5 -16 29 -24 54 -9 25 -30 83 -47 130 -62 170 -82 225 -90 250
-5 14 -18 50 -30 80 -11 30 -35 96 -52 145 -17 50 -34 95 -38 100 -4 6 -10 22
-14 37 -3 15 -11 40 -18 55 -6 15 -12 33 -14 38 -12 43 -59 165 -75 197 -5 10
-9 23 -9 29 0 7 -18 56 -40 111 -40 99 -91 188 -142 243 -15 17 -35 39 -45 50
-28 31 -110 95 -122 95 -6 0 -11 4 -11 9 0 8 -168 90 -198 96 -9 2 -28 8 -42
13 -28 11 -174 42 -230 49 -50 6 -340 9 -340 3z"/>
</g>
</svg>
